<?xml version="1.0" encoding="utf-8" ?>
<svg xmlns="http://www.w3.org/2000/svg" xmlns:xlink="http://www.w3.org/1999/xlink" width="470" height="470"
    viewBox="0 0 470 470">
    <path fill="rgba(170,172,213,0.401)" transform="matrix(0.94 0 0 0.94 0.000488281 6.10352e-05)"
        d="M238.773 159.379C244.551 159.285 270.188 158.602 273.611 160.977C274.965 161.917 275.797 163.704 275.981 165.308C276.126 166.568 275.927 168.043 275.043 169.009C272.161 172.16 261.137 171.401 257.028 171.426C251.639 171.447 224.178 172.044 221.164 169.521C220.281 168.783 219.886 167.608 219.806 166.489C219.696 164.965 220.094 162.892 221.191 161.754C223.867 158.979 235.023 159.422 238.773 159.379Z" />
    <defs>
        <linearGradient id="gradient_0" gradientUnits="userSpaceOnUse" x1="248.20361" y1="391.95856" x2="241.5379"
            y2="243.35252">
            <stop offset="0" stop-color="#0D0D30" />
            <stop offset="1" stop-color="#2B2BA6" />
        </linearGradient>
    </defs>
    <path fill="url(#gradient_0)" transform="matrix(0.94 0 0 0.94 0.000488281 6.10352e-05)"
        d="M242.387 215.3L242.599 215.797C243.856 216.013 253.04 216.157 254.073 215.762C255.412 216.076 265.085 215.657 268.016 215.906C269.717 215.936 274.398 215.746 275.632 216.613C275.453 217.778 273.39 217.57 272.429 217.926C268.32 219.453 265.364 221.71 264.677 226.242C264.294 228.279 264.038 231.32 264.414 233.186L264.916 233.4C264 234.008 264.224 234.505 264.235 235.593C264.368 237.168 264.05 242.38 264.651 243.151C264.125 243.999 264.259 251.787 264.383 253.053C264.376 254.541 264.278 258.483 264.517 259.762C264.215 261.314 264.096 271.972 264.567 273.321C264.103 275.845 264.343 282.906 264.374 285.859C264.444 292.406 264.474 298.954 264.463 305.502L264.439 390.278L303.631 390.339C301.177 390.63 296.067 390.509 293.399 390.511L274.403 390.532C272.047 390.536 266.819 390.412 264.8 390.891L264.569 391.371C265.872 390.863 266.259 391.114 267.337 391.811C265.01 392.031 261.429 391.933 259.022 391.934L244.321 391.932C240.913 391.931 237.465 391.962 234.059 391.955C232.522 391.951 225.991 392.272 225.266 391.2C225.972 389.808 230.982 389.874 233.3 387.193C237.677 382.13 236.536 375.495 236.509 369.066L236.509 348.462L236.496 275.187C226.742 272.874 211.575 254.905 218.846 244.537C220.881 241.634 232.691 242.485 236.454 242.507C236.346 240.455 236.432 238.396 236.538 236.347C236.418 235.283 236.733 234.134 236.278 233.058C237.146 231.394 236.433 222.68 234 221.879C232.301 218.684 228.748 218.079 225.536 217.709L225.379 215.972C228.389 215.366 238.286 216.12 242.075 215.844L242.387 215.3ZM236.199 262.533C236.674 261.662 236.529 254.983 236.537 253.346C233.819 253.434 230.688 253.546 227.987 253.427C230.564 257.523 231.984 259.853 236.199 262.533Z" />
    <path fill="#2D2DB3" transform="matrix(0.94 0 0 0.94 0.000488281 6.10352e-05)"
        d="M242.387 215.3L242.599 215.797C243.856 216.013 253.04 216.157 254.073 215.762C255.412 216.076 265.085 215.657 268.016 215.906C269.717 215.936 274.398 215.746 275.632 216.613C275.453 217.778 273.39 217.57 272.429 217.926C268.32 219.453 265.364 221.71 264.677 226.242C264.294 228.279 264.038 231.32 264.414 233.186L264.916 233.4C264 234.008 264.224 234.505 264.235 235.593C263.389 236.635 263.956 242.353 264.072 244.107L262.968 245.55C261.886 245.537 261.439 244.441 261.028 244.365C255.895 243.412 250.467 243.358 245.26 243.634C242.969 243.756 241.775 244.748 238.978 244.356C238.567 243.697 238.828 243.82 238.288 243.673C237.704 244.41 237.615 245.105 237.374 246.021C237.351 243.982 237.707 237.592 236.538 236.347C236.418 235.283 236.733 234.134 236.278 233.058C237.146 231.394 236.433 222.68 234 221.879C232.301 218.684 228.748 218.079 225.536 217.709L225.379 215.972C228.389 215.366 238.286 216.12 242.075 215.844L242.387 215.3Z" />
    <path fill="rgba(170,172,213,0.401)" transform="matrix(0.94 0 0 0.94 0.000488281 6.10352e-05)"
        d="M236.454 242.507C236.583 246.128 236.549 249.724 236.537 253.346C233.819 253.434 230.688 253.546 227.987 253.427C230.564 257.523 231.984 259.853 236.199 262.533L236.476 262.726C236.677 266.249 236.544 271.587 236.496 275.187C226.742 272.874 211.575 254.905 218.846 244.537C220.881 241.634 232.691 242.485 236.454 242.507Z" />
    <defs>
        <linearGradient id="gradient_1" gradientUnits="userSpaceOnUse" x1="209.11223" y1="184.65082" x2="211.88208"
            y2="105.83141">
            <stop offset="0" stop-color="#21217F" />
            <stop offset="1" stop-color="#3130BD" />
        </linearGradient>
    </defs>
    <path fill="url(#gradient_1)" transform="matrix(0.94 0 0 0.94 0.000488281 6.10352e-05)"
        d="M155.387 106.869C176.389 106.779 197.883 107.23 218.798 106.712C221.942 107.196 226.532 106.906 229.811 106.974C237.569 107.134 245.977 106.652 253.689 107.026C253.707 107.829 253.694 110.33 253.905 110.941C253.858 118.722 253.855 126.503 253.896 134.285C253.903 136.889 254.252 148.943 253.037 150.423L252.613 150.401C251.645 149.164 251.583 143.478 251.177 141.629C248.46 129.281 241.3 119.396 230.289 113.604C213.989 121.806 206.755 126.962 200.337 145.309C199.234 148.463 196.911 153.16 196.929 155.529C197.008 157.271 197.123 161.721 196.955 163.441C196.383 168.519 196.797 175.211 196.658 180.431C196.195 179.759 196.407 177.869 196.384 176.956C195.6 178.164 196.254 180.008 194.978 180.317C194.594 179.925 194.142 179.299 193.539 179.376C189.932 179.835 186.62 180.13 182.976 179.975C181.429 179.91 179.066 180.767 177.438 180.649C175.187 180.582 171.969 183.525 170.358 183.015L170.179 182.14L169.65 183.28L169.31 183.292C169.011 181.772 169.058 182.672 168.5 181.493L168.324 132.854C168.306 125.432 168.048 116.452 168.385 109.134L167.959 108.71L168.019 108.021C168.518 107.826 168.367 107.91 168.815 107.578C168.184 106.838 155.787 107.363 153.632 107.161L155.387 106.869ZM197.142 126.349C200.956 117.755 207.349 113.926 215.277 109.357C213.291 108.243 200.361 108.977 196.716 108.563C196.772 111.383 196.423 124.834 197.142 126.349Z" />
    <path fill="rgba(170,172,213,0.401)" transform="matrix(0.94 0 0 0.94 0.000488281 6.10352e-05)"
        d="M215.277 109.357L215.494 109.054C218.054 108.896 228.915 111.799 230.289 113.604C213.989 121.806 206.755 126.962 200.337 145.309C199.234 148.463 196.911 153.16 196.929 155.529C196.908 155.338 196.889 155.148 196.872 154.958C196.608 151.961 196.304 127.36 197.142 126.349C200.956 117.755 207.349 113.926 215.277 109.357Z" />
    <defs>
        <linearGradient id="gradient_2" gradientUnits="userSpaceOnUse" x1="182.71568" y1="284.28723" x2="173.41882"
            y2="180.31198">
            <stop offset="0" stop-color="#0D0C2E" />
            <stop offset="1" stop-color="#222282" />
        </linearGradient>
    </defs>
    <path fill="url(#gradient_2)" transform="matrix(0.94 0 0 0.94 0.000488281 6.10352e-05)"
        d="M168.5 181.493C169.058 182.672 169.011 181.772 169.31 183.292L169.65 183.28L170.179 182.14L170.358 183.015C171.969 183.525 175.187 180.582 177.438 180.649C179.066 180.767 181.429 179.91 182.976 179.975C186.62 180.13 189.932 179.835 193.539 179.376C194.142 179.299 194.594 179.925 194.978 180.317C196.254 180.008 195.6 178.164 196.384 176.956C196.407 177.869 196.195 179.759 196.658 180.431C196.654 182.947 196.474 191.468 196.773 193.509L197.101 193.714C196.516 194.67 196.706 198.678 196.702 200.012L196.666 214.387L196.67 252.947C196.676 257.27 196.389 267.09 196.733 271.046C196.905 273.134 197.628 275.14 198.827 276.859C202.382 281.901 206.3 280.337 207.999 282.006L207.872 282.395C206.041 283.323 199.781 282.994 197.408 282.977L182.565 282.887L166.906 282.93C164.97 282.94 158.65 283.404 157.342 282.278C157.483 281.035 160.441 281.082 161.953 280.483C163.228 279.972 164.39 279.218 165.376 278.262C169.476 274.27 168.51 268.678 168.507 263.471L168.503 244.536L168.5 181.493Z" />
    <path fill="rgba(170,172,213,0.401)" transform="matrix(0.94 0 0 0.94 0.000488281 6.10352e-05)"
        d="M218.798 106.712C221.698 105.303 223.687 104.109 226.887 103.014C239.765 98.6037 254.9 98.0625 267.767 102.568C282.999 108.057 295.453 119.329 302.428 133.939C309.014 147.681 310.535 164.874 305.53 179.434C301.756 190.414 295.803 197.283 287.422 205.039C285.471 206.844 281.621 209.805 280.177 211.759C279.568 215.731 279.761 220.794 279.779 224.905L279.804 242.802C279.802 246.616 279.964 250.995 279.118 254.698C277.459 261.951 271.649 270.389 264.567 273.321C264.096 271.972 264.215 261.314 264.517 259.762C265.493 258.28 266.616 255.255 266.389 253.526C265.726 253.065 265.274 253.151 264.383 253.053C264.259 251.787 264.125 243.999 264.651 243.151C265.774 242.844 267.251 242.723 268.432 242.582C268.463 240.12 268.389 235.687 268.834 233.408C267.278 233.492 266.472 233.491 264.916 233.4L264.414 233.186C264.038 231.32 264.294 228.279 264.677 226.242C265.364 221.71 268.32 219.453 272.429 217.926C273.39 217.57 275.453 217.778 275.632 216.613C274.398 215.746 269.717 215.936 268.016 215.906C267.952 215.595 267.901 215.282 267.864 214.966C266.749 205.074 272.994 203.021 279.496 197.771C292.771 187.051 298.741 172.74 297.08 155.797C295.754 142.384 289.166 130.044 278.76 121.478C272.574 116.476 265.693 113.233 257.911 111.472C256.833 111.227 254.915 110.831 253.905 110.941C253.694 110.33 253.707 107.829 253.689 107.026C245.977 106.652 237.569 107.134 229.811 106.974C226.532 106.906 221.942 107.196 218.798 106.712Z" />
    <path fill="rgba(170,172,213,0.401)" transform="matrix(0.94 0 0 0.94 0.000488281 6.10352e-05)"
        d="M196.955 163.441C198.623 173.706 204.762 188.381 212.603 195.205C216.502 198.599 221.33 201.611 224.925 205.579C225.354 208.557 225.321 212.86 225.379 215.972L225.536 217.709C225.417 219.253 225.316 220.798 225.234 222.344C228.364 221.819 230.925 222.53 234 221.879C236.433 222.68 237.146 231.394 236.278 233.058C235.842 233.139 235.47 233.189 235.02 233.198C211.043 233.69 214.663 232.669 213.739 212.083C211.93 209.634 210.106 208.188 207.938 206.113C203.838 202.189 199.949 198.681 197.101 193.714L196.773 193.509C196.474 191.468 196.654 182.947 196.658 180.431C196.797 175.211 196.383 168.519 196.955 163.441Z" />
    <defs>
        <linearGradient id="gradient_3" gradientUnits="userSpaceOnUse" x1="291.61639" y1="412.79065" x2="346.53052"
            y2="343.66217">
            <stop offset="0" stop-color="black" />
            <stop offset="1" stop-color="#161A54" />
        </linearGradient>
    </defs>
    <path fill="url(#gradient_3)" transform="matrix(0.94 0 0 0.94 0.000488281 6.10352e-05)"
        d="M303.631 390.339C307.192 390.296 311.778 390.349 315.246 390.012C325.081 389.13 334.276 384.756 341.166 377.681C345.322 373.38 348.514 368.242 350.529 362.61C351.441 360.034 351.782 357.533 352.215 354.866C352.474 353.274 352.365 349.385 353.536 348.533C353.949 348.707 353.98 348.626 354.182 349.079C354.883 350.652 354.6 386.938 354.458 391.866C336.717 392.154 317.918 391.801 300.119 391.776L277.901 391.81C274.807 391.816 270.334 391.971 267.337 391.811C266.259 391.114 265.872 390.863 264.569 391.371L264.8 390.891C266.819 390.412 272.047 390.536 274.403 390.532L293.399 390.511C296.067 390.509 301.177 390.63 303.631 390.339Z" />
    <path fill="#2D2DB3" transform="matrix(0.94 0 0 0.94 0.000488281 6.10352e-05)"
        d="M111.756 107.032C125.359 106.49 141.586 106.755 155.387 106.869L153.632 107.161C155.787 107.363 168.184 106.838 168.815 107.578C168.367 107.91 168.518 107.826 168.019 108.021L167.959 108.71C161.472 109.371 155.023 108.234 148.056 109.324C130.669 112.045 117.84 124.459 114.118 141.623C113.718 143.464 113.568 149.515 112.849 150.477L112.376 150.431C111.091 148.748 111.688 138.868 111.674 136.136C111.585 126.435 111.613 116.733 111.756 107.032Z" />
    <path fill="rgba(170,172,213,0.401)" transform="matrix(0.94 0 0 0.94 0.000488281 6.10352e-05)"
        d="M242.387 215.3C241.913 211.793 242.017 206.627 242.056 202.966C242.113 197.709 240.686 184.608 247.865 183.786C257.658 182.664 253.229 203.376 254.178 209.321C254.289 210.018 254.151 215.122 254.073 215.762C253.04 216.157 243.856 216.013 242.599 215.797L242.387 215.3Z" />
    <path fill="rgba(170,172,213,0.401)" transform="matrix(0.94 0 0 0.94 0.000488281 6.10352e-05)"
        d="M314.877 74.3134C318.978 74.1533 320.082 75.3659 321.101 79.0201C320.915 79.8221 320.479 81.3056 320.173 81.9737C318.188 86.3092 305.167 99.0561 301.501 100.571C283.958 100.344 306.469 76.1057 314.877 74.3134Z" />
    <path fill="rgba(170,172,213,0.401)" transform="matrix(0.94 0 0 0.94 0.000488281 6.10352e-05)"
        d="M178.992 74.2938C179.586 74.2554 180.182 74.2773 180.771 74.3592C186.646 75.125 195.107 85.1797 198.78 89.7624C202.031 93.8183 200.785 96.6283 196.845 99.4034C192.664 100.638 185.322 92.2315 182.195 89.6053C178.157 86.2149 171.058 77.7219 178.992 74.2938Z" />
    <path fill="rgba(170,172,213,0.401)" transform="matrix(0.94 0 0 0.94 0.000488281 6.10352e-05)"
        d="M246.524 53.3093C255.386 52.3697 255.28 62.482 255.118 68.517C254.996 73.046 254.975 78.3123 249.836 79.9803C240.536 80.3781 240.959 68.3158 241.731 62.0607C242.225 58.0578 242.68 55.2366 246.524 53.3093Z" />
</svg>