<?xml version="1.0" encoding="utf-8" ?>
<svg xmlns="http://www.w3.org/2000/svg" xmlns:xlink="http://www.w3.org/1999/xlink" width="1018" height="395"
    viewBox="0 0 1018 395">
    <path fill="#0090E4"
        d="M868.825 129.405C872.854 129.199 876.574 129.138 880.577 129.298C916.3 130.719 944.231 163.334 941.311 198.831C939.215 224.312 928.27 233.795 910.724 249.472C910.41 259.836 911.89 287.665 909.576 296.142C902.063 323.659 862.353 329.078 847.053 302.377C843.548 295.599 839.522 287.868 847.311 282.533C853.201 281.901 864.125 282.099 870.458 282.119C879.225 282.147 889.919 281.807 898.525 282.317C898.788 279.002 898.776 275.51 898.82 272.172C888.683 270.76 847.025 274.161 841.92 269.751C838.797 267.054 840.05 253.203 840.092 248.986C823.986 234.173 814.436 225.832 811.267 202.443C806.223 165.231 831.936 134.2 868.825 129.405ZM898.241 260.363C898.14 255.647 897.365 246.601 899.741 242.857C904.317 238.09 911.582 234.184 916.673 228.244C926.042 217.312 930.212 205.743 929.374 191.418C928.459 177.353 922.073 164.205 911.581 154.788C900.768 145.129 886.51 140.244 872.042 141.243C857.202 142.172 843.687 150.059 833.996 161.072C830.75 165.977 828.176 170.015 826.125 175.637C818.738 195.886 823.701 219.469 840.637 233.384C844.668 236.696 848.366 238.831 851.875 242.783C851.99 248.583 852.052 254.383 852.06 260.184C865.175 260.145 885.316 259.642 898.241 260.363ZM892.109 302.202C894.834 299.461 896.011 297.331 897.753 293.873C883.951 293.454 868.762 294.304 855.486 293.719C863.093 308.326 878.985 313.177 892.109 302.202Z" />
    <path fill="#0090E4"
        d="M849.407 194.245C853.198 192.741 898.993 192.675 902.507 194.13C904.008 194.752 905.261 195.926 905.864 197.443C906.514 199.076 906.499 201.077 905.76 202.679C905.287 203.703 904.386 204.748 903.295 205.12C899.403 206.45 851.558 206.365 848.696 204.963C847.263 204.261 846.466 203.138 845.99 201.651C845.891 201.34 845.813 201.041 845.754 200.721C846.118 196.907 846.103 196.455 849.407 194.245Z" />
    <path fill="#041733"
        d="M849.407 194.245C853.198 192.741 898.993 192.675 902.507 194.13C904.008 194.752 905.261 195.926 905.864 197.443C906.514 199.076 906.499 201.077 905.76 202.679C905.287 203.703 904.386 204.748 903.295 205.12C899.403 206.45 851.558 206.365 848.696 204.963C847.263 204.261 846.466 203.138 845.99 201.651C845.891 201.34 845.813 201.041 845.754 200.721C847.599 202.727 849.168 204.541 852.104 204.61C868.366 204.992 884.903 204.758 901.156 204.548C907.245 204.47 906.621 194.957 899.788 194.462C894.224 194.06 888.608 194.25 882.937 194.285C871.761 194.442 860.583 194.429 849.407 194.245Z" />
    <path fill="#0090E4"
        d="M875.267 219.177C875.44 219.173 875.612 219.169 875.785 219.173C877.706 219.216 879.976 219.575 881.345 221.05C884.403 224.347 882.756 249.965 882.477 255.755C880.689 257.354 880.134 257.92 877.806 258.789C873.593 258.819 872.642 256.912 870.455 253.688C870.072 245.424 869.912 231.308 870.688 223.388C872.266 221.313 872.968 220.472 875.267 219.177Z" />
    <path fill="#041733"
        d="M850.797 242.734C845.359 237.029 838.924 234.222 833.396 227.272C823.886 215.314 821.183 202.828 822.405 187.799C823.069 179.638 827.574 166.326 833.996 161.072C830.75 165.977 828.176 170.015 826.125 175.637C818.738 195.886 823.701 219.469 840.637 233.384C844.668 236.696 848.366 238.831 851.875 242.783C851.99 248.583 852.052 254.383 852.06 260.184C865.175 260.145 885.316 259.642 898.241 260.363C898.14 255.647 897.365 246.601 899.741 242.857C898.85 247.553 899.488 256.233 899.703 261.365L851.562 261.407C850.924 256.217 851.372 248.83 850.797 242.734Z" />
    <path fill="#0090E4"
        d="M516.536 141.224C517.814 141.079 519.429 141.14 520.476 141.162C523.75 141.231 528.446 143.428 530.262 145.714C543.876 162.852 499.298 211.285 489.08 224.166C483.165 231.622 473.405 240.615 467.964 248.778C464.927 253.613 462.564 259.512 462.018 265.176C461.763 267.828 464.359 270.053 466.641 269.524C482.52 265.846 502.416 243.486 511.886 230.773C518.704 221.62 521.99 204.182 529.746 195.08C531.513 193.024 534.116 192.48 536.68 192.32C543.414 191.901 544.474 197.889 542.967 203.24C540.965 210.345 536.997 217.61 533.882 224.414C529.409 234.053 524.751 243.759 520.991 253.7C519.58 257.43 516.01 265.093 519.15 268.273C526.783 270.335 548.965 243.7 553.135 237.524C561.519 224.346 568.884 213.437 580.815 203.067C588.794 196.131 602.015 188.189 612.842 194.017C619.786 197.756 620.681 209.328 612.242 211.893C609.654 212.68 607.049 207.381 604.839 205.797C593.164 203.275 561.208 255.541 566.253 267.749C575.527 275.217 602.197 245.148 607.159 238.2C614.516 227.899 621.698 198.848 631.725 192.647C640.367 191.301 646.763 195.116 643.097 204.347C639.489 213.431 635.14 222.299 631.015 231.173C624.655 245.207 618.189 259.194 611.617 273.13C599.606 298.025 584.813 326.076 557.31 337.116C541.781 343.041 519.023 336.344 520.416 316.517C520.538 314.978 521.307 314.022 521.878 312.663C524.249 307.02 530.298 303.895 536.099 306.099C539.123 307.891 538.526 313.517 539.209 316.655C540.419 322.221 548.708 321.808 553.099 319.886C573.447 310.975 587.204 284.845 596.1 265.852C594.359 267.62 592.573 269.343 590.743 271.021C579.548 281.09 558.175 293.506 549.249 272.109C547.466 267.835 548.003 262.33 548.339 257.759C540.333 267.84 527.266 284.47 513.496 283.721C499.589 282.964 498.261 270.285 498.766 260.062C489.098 271.529 473.834 285.704 457.636 283.373C443.594 281.83 440.631 266.723 444.491 254.861C453.732 226.46 467.221 196.076 482.454 170.383C490.307 157.136 501.408 144.643 516.536 141.224ZM477.591 221.166C481.563 216.349 486.28 210.945 490.549 206.439C496.664 199.982 524.828 162.235 518.779 154.219L517.856 153.884C503.617 162.114 490.523 191.674 483.706 206.062C482.627 208.342 477.063 219.629 476.878 221.491L477.591 221.166Z" />
    <path fill="#FCFCFC"
        d="M341.639 134.788L347.495 134.806C351.221 136.892 355.434 139.7 353.896 144.683C352.416 149.475 350.033 154.154 347.556 158.517C337.757 175.778 329.122 193.725 319.492 211.059C320.36 210.16 321.236 209.268 322.12 208.385C330.213 200.309 339.184 191.99 351.357 192.093C364.1 192.201 370.221 201.482 369.439 213.655C368.115 234.278 353.717 254.703 339.384 268.832C328.24 279.461 316.95 284.035 301.768 283.516C287.668 283.034 278.024 276.544 278.695 261.169C267.958 273.133 252.793 290.326 235.238 280.056C226.738 275.083 230.381 266.589 228.685 264.387C227.636 264.548 225.049 267.535 224.112 268.426C215.503 276.606 202.403 288.085 189.755 281.652C182.545 277.985 178.046 270.881 179.825 262.654C183.291 246.629 191.41 230.877 199.077 216.435C200.658 213.617 202.045 210.573 203.538 207.825C205.782 203.696 208.017 197.698 211.628 194.719C215.556 191.478 227.448 190.55 230.517 195.308C233.916 200.579 229.205 207.022 226.843 211.67C217.935 228.541 207.373 245.512 201.659 263.779C201.125 265.488 202.707 268.704 204.572 268.243C212.664 266.24 219.574 258.846 225.148 252.941C237.373 240.501 243.637 225.064 251.712 209.982C254.874 204.076 257.015 197.948 261.822 193.321C268.289 191.732 270.444 191.568 276.898 193.29C282.56 198.618 280.99 201.625 277.524 207.987C275.896 210.976 274.184 214.117 272.548 217.117C267.734 225.951 263.102 234.882 258.654 243.905C255.838 249.512 249.356 260.547 250.495 266.656C253.321 270.684 260.991 265.212 263.442 262.675C268.655 257.277 279.173 247.629 282.324 240.976C295.132 213.932 305.365 185.862 321.051 160.168C326.647 151.016 331.202 139.263 341.639 134.788ZM302.335 268.081C303.112 268.203 304.503 268.451 305.229 268.467C326.871 268.955 349.294 224.002 349.309 206.945C348.989 206.518 348.781 206.139 348.308 205.913C331.994 206.709 302.626 245.382 300.05 262.09C299.758 263.98 301.284 266.48 302.335 268.081Z" />
    <path fill="#FCFCFC"
        d="M204.117 117.505C236.723 117.063 269.524 121.856 301.898 125.277C311.052 126.244 311.931 135.774 304.355 139.041C275.311 151.564 243.441 143.91 213.042 144.539C196.787 175.33 183.302 201.024 168.919 232.785C163.356 245.003 157.966 257.3 152.751 269.67C149.839 276.607 143.475 295.252 137.909 299.519C133.346 303.018 117.293 295.189 115.844 290.051C114.299 284.574 122.796 267.984 125.27 262.518C125.89 260.034 135.635 239.268 137.069 236.188C147.47 213.391 158.535 190.903 170.252 168.753C173.574 162.489 179.981 149.76 183.553 144.546C167.977 144.433 154.679 143.841 138.36 147.893C122.856 151.743 100.83 164.769 106.179 184.697C106.805 187.028 115.762 193.25 112.748 196.271C108.766 200.261 101.742 196.966 98.0759 194.03C93.7764 190.68 91.1123 183.875 90.7301 178.503C89.0941 155.505 109.273 139.43 128.207 131.105C146.605 123.017 164.96 120.759 184.706 118.642C191.35 117.929 197.682 118.145 204.117 117.505Z" />
    <path fill="#0090E4"
        d="M695.621 141.703C697.865 141.455 698.927 141.528 701.045 142.361C708.432 145.373 705.82 151.098 703.169 156.328C694.405 173.621 682.765 192.09 675.224 209.807C679.595 204.444 683.172 200.942 689.105 196.95C702.389 188.011 719.803 190.99 717.599 210.35C717.343 213.214 715.168 217.194 714.569 219.702C712.674 227.64 692.717 261.342 696.645 267.785C702.98 270.447 721.904 245.32 725.892 240.31C728.263 237.331 732.006 228.26 733.719 224.444C737.52 215.939 741.271 207.413 744.973 198.865C740.913 198.808 736.02 199.214 733.058 196.011C729.899 192.594 733.512 188.649 735.992 186.415C740.268 186.062 746.26 186.112 750.681 186.036C750.776 185.727 750.877 185.419 750.985 185.113C753.322 178.492 763.035 153.354 770.275 149.011C773.034 147.357 780.817 150.069 780.746 154.381C780.603 162.998 772.261 178.056 768.969 186.099C772.897 185.983 783.432 185.135 785.222 187.94C794.282 202.142 767.355 198.8 763.84 198.781C760.702 204.774 755.928 215.926 753.387 222.342C749.27 232.736 736.426 257.774 737.035 267.819C746.261 273.779 760.082 242.64 768.122 241.807C778.338 245.392 759.075 267.213 755.83 271.083C743.181 286.168 718.618 291.627 718.9 264.372C716.83 267.438 714.962 269.79 712.199 272.463C706.273 278.196 699.138 283.413 690.552 283.545C687.286 283.596 683.422 281.016 681.457 278.673C666.056 260.307 698.376 225.987 699.437 205.806C676.798 214.469 653.261 257.044 643.073 278.12C637.538 289.571 620.025 282.673 629.089 266.724C640.664 246.356 678.385 147.024 695.621 141.703Z" />
    <path fill="#FCFCFC"
        d="M423.831 192.485C424.869 192.446 426.182 192.456 427.199 192.377C444.078 191.3 448.25 205.343 443.924 218.886C437.477 239.074 414.721 257.171 392.764 250.011L392.612 250.509C390.535 257.337 387.258 268.39 397.516 270.544C407.797 272.703 421.346 264.17 429.264 258.202C432.764 255.564 436.188 250.78 439.878 248.605C441.578 248.754 441.004 248.464 442.084 249.613C442.765 252.642 441.361 255.435 440.107 258.126C433.52 270.471 415.202 281.317 402.037 282.926C355.429 288.623 365.43 240.547 385.816 217.094C396.581 204.709 407.56 194.542 423.831 192.485ZM402.146 239.565C414.523 237.32 430.524 221.153 430.249 206.975C430.241 206.558 429.652 205.909 429.372 205.523C427.826 204.972 427.622 204.959 425.991 205.146C415.17 209.913 403.228 227.018 397.395 237.609C397.048 238.238 397.221 238.622 397.313 239.351C399.164 239.693 400.297 239.616 402.146 239.565Z" />
    <path fill="#0090E4"
        d="M947.385 101.965C958.046 102.005 955.5 111.602 950.097 116.137C946.102 119.49 938.196 128.887 934.103 130.943C912.855 129.436 941.227 104.607 947.385 101.965Z" />
    <path fill="#0090E4"
        d="M802.801 101.941C809.064 101.998 820.665 114.493 824.351 119.659C827.433 123.978 825.04 127.727 820.609 129.879C820.143 129.801 819.681 129.701 819.224 129.579C817.034 128.986 813.769 126.246 812.141 124.515C806.948 118.991 790.322 108.823 802.801 101.941Z" />
    <path fill="#093658"
        d="M874.103 80.0545C885.849 78.7361 883.729 90.6865 883.682 98.5653C883.658 102.551 882.902 106.13 879.576 108.531C878.87 108.533 876.588 108.551 876.017 108.415C867.953 106.495 869.62 93.2271 870.152 87.0521C870.462 83.4548 871.576 81.8751 874.103 80.0545Z" />
    <path fill="#0090E4"
        d="M875.351 80.4715C884.267 81.1903 882.497 89.6128 882.617 96.302C882.711 101.518 882.784 105.968 877.509 107.954C870.936 106.619 870.486 100.273 870.513 94.5871C870.538 89.199 870.259 83.5332 875.351 80.4715Z" />
    <path fill="#0090E4"
        d="M550.025 167.019C565.725 166.374 557.1 182.248 547.712 187.505C535.024 189.855 537 170.678 550.025 167.019Z" />
</svg>